HIERARCHY
ROOT Hips
{
    OFFSET 0.000000 0.000000 0.000000
    CHANNELS 6 Xposition Yposition Zposition Zrotation Xrotation Yrotation
    JOINT Spine
    {
        OFFSET -0.000000 7.236184 0.000000
        CHANNELS 3 Zrotation Xrotation Yrotation
        JOINT Spine1
        {
            OFFSET -0.000000 20.420147 0.000000
            CHANNELS 3 Zrotation Xrotation Yrotation
            JOINT Neck
            {
                OFFSET -0.000000 20.336288 1.848754
                CHANNELS 3 Zrotation Xrotation Yrotation
                JOINT Head
                {
                    OFFSET -0.000000 12.354461 -1.764923
                    CHANNELS 3 Zrotation Xrotation Yrotation
                    End Site
                    {
                        OFFSET -0.000000 22.061537 0.000000
                    }
                }
            }
            JOINT LeftShoulder
            {
                OFFSET 3.573296 18.396038 -0.314103
                CHANNELS 3 Zrotation Xrotation Yrotation
                JOINT LeftArm
                {
                    OFFSET 10.880760 0.000000 0.000000
                    CHANNELS 3 Zrotation Xrotation Yrotation
                    JOINT LeftForeArm
                    {
                        OFFSET 27.185530 0.000000 0.000000
                        CHANNELS 3 Zrotation Xrotation Yrotation
                        JOINT LeftHand
                        {
                            OFFSET 27.825975 0.000000 0.000000
                            CHANNELS 3 Zrotation Xrotation Yrotation
                            End Site
                            {
                                OFFSET 13.236923 0.000000 0.000000
                            }
                        }
                    }
                }
            }
            JOINT RightShoulder
            {
                OFFSET -3.474926 18.396038 -0.314103
                CHANNELS 3 Zrotation Xrotation Yrotation
                JOINT RightArm
                {
                    OFFSET -10.880760 0.000000 0.000000
                    CHANNELS 3 Zrotation Xrotation Yrotation
                    JOINT RightForeArm
                    {
                        OFFSET -27.185530 0.000000 0.000000
                        CHANNELS 3 Zrotation Xrotation Yrotation
                        JOINT RightHand
                        {
                            OFFSET -27.825975 0.000000 0.000000
                            CHANNELS 3 Zrotation Xrotation Yrotation
                            End Site
                            {
                                OFFSET -13.236923 0.000000 0.000000
                            }
                        }
                    }
                }
            }
        }
    }
    JOINT LeftUpLeg
    {
        OFFSET 8.824615 0.000000 0.000000
        CHANNELS 3 Zrotation Xrotation Yrotation
        JOINT LeftLeg
        {
            OFFSET -0.000000 -35.111282 0.000000
            CHANNELS 3 Zrotation Xrotation Yrotation
            JOINT LeftFoot
            {
                OFFSET -0.000000 -42.324711 0.000000
                CHANNELS 3 Zrotation Xrotation Yrotation
                JOINT LeftToeBase
                {
                    OFFSET -0.000000 -5.735999 13.236923
                    CHANNELS 3 Zrotation Xrotation Yrotation
                    End Site
                    {
                        OFFSET -0.000000 0.000000 3.529846
                    }
                }
            }
        }
    }
    JOINT RightUpLeg
    {
        OFFSET -8.824615 0.000000 0.000000
        CHANNELS 3 Zrotation Xrotation Yrotation
        JOINT RightLeg
        {
            OFFSET -0.000000 -35.111282 0.000000
            CHANNELS 3 Zrotation Xrotation Yrotation
            JOINT RightFoot
            {
                OFFSET -0.000000 -42.324711 0.000000
                CHANNELS 3 Zrotation Xrotation Yrotation
                JOINT RightToeBase
                {
                    OFFSET -0.000000 -5.735999 13.236923
                    CHANNELS 3 Zrotation Xrotation Yrotation
                    End Site
                    {
                        OFFSET -0.000000 0.000000 3.529846
                    }
                }
            }
        }
    }
}
MOTION
Frames:    13
Frame Time:    0.008333
-4.693453    68.054619    122.401764    5.509357    -38.678234    -176.577255    -2.293424    -0.764437    -0.774115    1.606425    6.925875    -0.856051    3.968800    -0.830925    4.643872    0.532861    -23.194078    4.388913    23.893053    -15.608569    -14.252708    -5.699484    -5.720873    -61.905888    28.603251    5.039227    -19.340406    55.521526    0.243172    -18.382483    -25.128147    -10.781390    7.750346    18.669121    -12.246997    74.796501    -28.371412    -8.462296    24.064600    -24.358160    -3.239726    4.298914    73.345573    -79.816086    57.388779    -7.550076    63.129749    26.837528    -7.575831    -9.497741    -14.201179    0.008574    -6.159275    -0.009620    -27.484669    -83.450600    -23.620514    -0.690772    62.866917    7.616400    4.570348    -12.035772    -25.792747    0.546004    -8.128659    -0.597672    
-4.567405    67.863174    122.445633    5.605829    -38.685135    -176.284332    -2.246448    -0.658441    -0.776158    1.648538    6.986518    -0.863870    3.866440    -1.031716    4.541568    0.623372    -23.280136    4.322651    24.102282    -15.892579    -14.159677    -6.005755    -5.945609    -62.221504    28.528627    5.081843    -19.160061    55.252491    0.347879    -18.258965    -25.300842    -10.896225    7.814495    18.843327    -12.526643    74.388153    -28.409674    -8.511529    24.113405    -24.484781    -3.271963    4.295202    74.919975    -80.050819    58.986584    -7.355005    63.485275    26.490627    -7.554621    -9.531689    -14.157821    -0.005151    -6.165205    0.005773    -28.897158    -83.649948    -24.974154    -0.608484    63.296623    7.545876    4.371716    -12.232055    -25.948036    0.558711    -7.978541    -0.611437    
-4.444297    67.665207    122.487282    5.708076    -38.694458    -175.990906    -2.191331    -0.554159    -0.774677    1.689659    7.041483    -0.868046    3.763583    -1.232720    4.441261    0.713761    -23.357754    4.258992    24.304201    -16.173851    -14.066576    -6.312137    -6.151498    -62.546455    28.447744    5.124135    -18.976219    54.989731    0.447670    -18.136541    -25.459476    -10.996372    7.889721    19.005138    -12.807579    73.977547    -28.449263    -8.549962    24.165876    -24.618111    -3.293232    4.296090    76.617310    -80.288857    60.715405    -7.113635    63.860249    26.106924    -7.526000    -9.575601    -14.112549    -0.023990    -6.168197    0.026902    -30.407557    -83.862144    -26.419149    -0.523426    63.747940    7.449346    4.183550    -12.420074    -26.086607    0.570778    -7.838311    -0.624503    
-4.324517    67.461517    122.526787    5.813480    -38.707268    -175.699310    -2.130526    -0.450460    -0.769952    1.729535    7.088202    -0.868690    3.663054    -1.435933    4.343825    0.799653    -23.426029    4.196748    24.498222    -16.452118    -13.974075    -6.616675    -6.338296    -62.876774    28.360249    5.166947    -18.792381    54.734032    0.542589    -18.018335    -25.603512    -11.085527    7.971608    19.152359    -13.083633    73.567657    -28.489052    -8.577253    24.221563    -24.757908    -3.303857    4.302771    78.437691    -80.529266    62.571632    -6.832030    64.251190    25.695366    -7.489432    -9.629773    -14.064485    -0.046972    -6.167747    0.052678    -32.023010    -84.086761    -27.961889    -0.440519    64.217461    7.332039    4.008154    -12.601707    -26.209866    0.582405    -7.706854    -0.637092    
-4.209004    67.253654    122.564110    5.919057    -38.724335    -175.413605    -2.067125    -0.347156    -0.762230    1.768608    7.125091    -0.866107    3.565875    -1.641421    4.250266    0.879218    -23.486076    4.136157    24.682379    -16.725180    -13.883441    -6.915522    -6.505976    -63.206013    28.266626    5.210860    -18.613411    54.487774    0.632155    -17.908092    -25.732738    -11.167885    8.054780    19.283289    -13.346841    73.164345    -28.527317    -8.593013    24.279041    -24.903690    -3.304461    4.316596    80.375023    -80.769127    64.543732    -6.523048    64.653107    25.271769    -7.446229    -9.693692    -14.013484    -0.073048    -6.163310    0.081924    -33.744556    -84.322388    -29.604517    -0.367753    64.700462    7.202424    3.848101    -12.777386    -26.318222    0.593928    -7.584697    -0.649572    
-4.098639    67.043015    122.599236    6.021926    -38.746216    -175.137970    -2.003855    -0.244536    -0.751848    1.806722    7.151689    -0.860526    3.472631    -1.850250    4.161416    0.952139    -23.538061    4.077841    24.855953    -16.991598    -13.795427    -7.205604    -6.654434    -63.527580    28.168098    5.256137    -18.443729    54.252972    0.715764    -17.809586    -25.847601    -11.246685    8.134718    19.396343    -13.591019    72.772720    -28.562704    -8.597965    24.336617    -25.054415    -3.296689    4.337810    82.423134    -81.004608    66.620316    -6.202018    65.061607    24.852938    -7.397136    -9.767036    -13.958877    -0.101073    -6.154270    0.113353    -35.576389    -84.567757    -31.354136    -0.315591    65.192184    7.071124    3.705560    -12.946862    -26.410801    0.605296    -7.471640    -0.661887    
-3.992125    66.826653    122.632767    6.121582    -38.773540    -174.870941    -1.941848    -0.140725    -0.738814    1.844687    7.168493    -0.852049    3.381259    -2.066411    4.076100    1.020386    -23.585093    4.021431    25.021061    -17.255293    -13.709413    -7.488863    -6.786781    -63.841236    28.064352    5.303854    -18.283827    54.026917    0.794455    -17.724295    -25.951088    -11.326303    8.209399    19.491907    -13.815931    72.389160    -28.594694    -8.593884    24.393993    -25.211391    -3.282491    4.366433    84.617355    -81.236084    68.832703    -5.878235    65.481178    24.447069    -7.343007    -9.850607    -13.899510    -0.130861    -6.140162    0.146758    -37.574390    -84.825958    -33.268307    -0.291531    65.698601    6.945917    3.578815    -13.113506    -26.488894    0.616830    -7.365347    -0.674387    
-3.892218    66.609314    122.664070    6.213748    -38.805672    -174.620758    -1.883853    -0.037120    -0.723900    1.880684    7.175246    -0.841203    3.294961    -2.287317    3.996722    1.081581    -23.626575    3.968163    25.175390    -17.510674    -13.626712    -7.757886    -6.900763    -64.136574    27.958752    5.353533    -18.138641    53.816055    0.866106    -17.656744    -26.041677    -11.405808    8.275419    19.566393    -14.015680    72.023834    -28.621727    -8.583321    24.448856    -25.369730    -3.265026    4.400946    86.910522    -81.455368    71.129402    -5.573783    65.901527    24.078037    -7.286244    -9.942053    -13.836336    -0.161053    -6.121169    0.180612    -39.740471    -85.089355    -35.353439    -0.301482    66.207687    6.838318    3.469840    -13.274352    -26.551622    0.628082    -7.267876    -0.686584    
-3.796802    66.385635    122.693932    6.299243    -38.842934    -174.383179    -1.829745    0.069521    -0.707004    1.916072    7.172665    -0.828283    3.210833    -2.519140    3.921182    1.137596    -23.664841    3.916770    25.323019    -17.763702    -13.544978    -8.016728    -7.000205    -64.417786    27.850084    5.405963    -18.004318    53.615845    0.931611    -17.606472    -26.124372    -11.487226    8.334504    19.621042    -14.196218    71.667458    -28.643772    -8.569814    24.502186    -25.530800    -3.247398    4.440185    89.357758    -81.664001    73.562943    -5.294834    66.332245    23.749964    -7.226232    -10.042635    -13.768229    -0.192089    -6.097122    0.215406    -42.191959    -85.361465    -37.726715    -0.345173    66.731346    6.751480    3.373384    -13.434484    -26.603308    0.639160    -7.176605    -0.698594    
-3.708387    66.160217    122.721718    6.375121    -38.884235    -174.165527    -1.781061    0.177541    -0.688854    1.949273    7.160923    -0.813635    3.131860    -2.757778    3.851432    1.185600    -23.699495    3.867929    25.461725    -18.008608    -13.465156    -8.257636    -7.083096    -64.676704    27.741926    5.459512    -17.882835    53.432114    0.988622    -17.574951    -26.198477    -11.568205    8.386261    19.653831    -14.354757    71.327736    -28.660015    -8.557777    24.552656    -25.688179    -3.233716    4.481293    91.906067    -81.853256    76.078682    -5.060273    66.764488    23.481911    -7.165854    -10.149200    -13.697145    -0.222993    -6.068969    0.250049    -44.958855    -85.632553    -40.419888    -0.414192    67.258110    6.688056    3.287838    -13.591352    -26.647444    0.649469    -7.093571    -0.709769    
-3.626774    65.931915    122.747505    6.441574    -38.929146    -173.968170    -1.737448    0.287786    -0.669334    1.980401    7.140748    -0.797301    3.058684    -3.004464    3.787225    1.223452    -23.730766    3.820473    25.592646    -18.245766    -13.385945    -8.479642    -7.150921    -64.914047    27.635540    5.512863    -17.771732    53.264885    1.036435    -17.560520    -26.266401    -11.647568    8.432566    19.666277    -14.495450    71.002701    -28.670746    -8.551598    24.600983    -25.838541    -3.227547    4.521882    94.559456    -82.020035    78.680580    -4.877960    67.201157    23.279648    -7.104916    -10.261359    -13.623342    -0.254241    -6.037800    0.285070    -48.138050    -85.899406    -43.527771    -0.494040    67.790245    6.642498    3.208194    -13.747189    -26.690432    0.658636    -7.018647    -0.719703    
-3.551991    65.699944    122.771248    6.498759    -38.977005    -173.792068    -1.698412    0.400338    -0.648235    2.009326    7.113175    -0.779097    2.991112    -3.258505    3.728246    1.250764    -23.759769    3.773971    25.716413    -18.474764    -13.307098    -8.680946    -7.204627    -65.129341    27.532364    5.563920    -17.669104    53.114208    1.074216    -17.560225    -26.329807    -11.723498    8.476306    19.660088    -14.622596    70.690308    -28.676018    -8.555092    24.648369    -25.979233    -3.231590    4.559316    97.311661    -82.160027    81.363670    -4.753199    67.644386    23.146357    -7.043871    -10.378152    -13.547320    -0.285987    -6.004459    0.320645    -51.828423    -86.157127    -47.147324    -0.570736    68.328918    6.608148    3.130409    -13.903384    -26.737501    0.666175    -6.951060    -0.727864    
-3.484270    65.463928    122.792755    6.546886    -39.026989    -173.638474    -1.663221    0.514772    -0.625412    2.035530    7.079596    -0.758800    2.928494    -3.519580    3.674242    1.268830    -23.785683    3.728645    25.833508    -18.694275    -13.228143    -8.860360    -7.245383    -65.322784    27.434557    5.610445    -17.573196    52.980389    1.101137    -17.571243    -26.389549    -11.794094    8.520153    19.637985    -14.740380    70.390144    -28.676655    -8.570920    24.696005    -26.107267    -3.247424    4.591194    100.143555    -82.269058    84.111397    -4.688657    68.095840    23.082230    -6.984131    -10.498490    -13.469757    -0.318725    -5.970109    0.357326    -56.119316    -86.400917    -51.366951    -0.634580    68.874573    6.579748    3.052262    -14.061292    -26.791613    0.671761    -6.891364    -0.733900    
